<svg xmlns="http://www.w3.org/2000/svg" width="2400" height="1700" viewBox="0 0 2400 1700" fill="none">
  <defs>
    <filter id="softShadow" x="-20%" y="-20%" width="140%" height="140%">
      <feDropShadow dx="0" dy="26" stdDeviation="28" flood-color="#15130f" flood-opacity="0.14"/>
    </filter>
    <filter id="smallShadow" x="-20%" y="-20%" width="140%" height="140%">
      <feDropShadow dx="0" dy="10" stdDeviation="14" flood-color="#211d17" flood-opacity="0.12"/>
    </filter>
    <filter id="texture">
      <feTurbulence type="fractalNoise" baseFrequency="0.75" numOctaves="2" stitchTiles="stitch"/>
      <feColorMatrix type="saturate" values="0"/>
      <feComponentTransfer>
        <feFuncA type="table" tableValues="0 0.055"/>
      </feComponentTransfer>
    </filter>
    <linearGradient id="pageBg" x1="0" x2="2400" y1="0" y2="1700" gradientUnits="userSpaceOnUse">
      <stop stop-color="#F9F4EA"/>
      <stop offset="0.45" stop-color="#F7F0E3"/>
      <stop offset="1" stop-color="#EEF4F0"/>
    </linearGradient>
    <linearGradient id="goldLine" x1="0" x2="1" y1="0" y2="0">
      <stop stop-color="#A97722"/>
      <stop offset="0.5" stop-color="#F0C36B"/>
      <stop offset="1" stop-color="#8C641D"/>
    </linearGradient>
    <linearGradient id="onyx" x1="0" x2="1" y1="0" y2="1">
      <stop stop-color="#1F2623"/>
      <stop offset="0.55" stop-color="#111513"/>
      <stop offset="1" stop-color="#2A2018"/>
    </linearGradient>
    <linearGradient id="opal" x1="0" x2="1" y1="0" y2="1">
      <stop stop-color="#FAFDFA"/>
      <stop offset="0.45" stop-color="#F2EEE4"/>
      <stop offset="1" stop-color="#E6F2EC"/>
    </linearGradient>
    <linearGradient id="emerald" x1="0" x2="1" y1="0" y2="1">
      <stop stop-color="#0F6D57"/>
      <stop offset="1" stop-color="#083D36"/>
    </linearGradient>
    <linearGradient id="ruby" x1="0" x2="1" y1="0" y2="1">
      <stop stop-color="#A83245"/>
      <stop offset="1" stop-color="#631D2B"/>
    </linearGradient>
    <linearGradient id="sapphire" x1="0" x2="1" y1="0" y2="1">
      <stop stop-color="#315A84"/>
      <stop offset="1" stop-color="#182D48"/>
    </linearGradient>
    <style>
      .label { font: 600 30px Inter, -apple-system, BlinkMacSystemFont, sans-serif; fill: #6B6255; letter-spacing: 0; }
      .title { font: 800 58px Georgia, 'Times New Roman', serif; fill: #211D17; letter-spacing: 0; }
      .h1 { font: 800 42px Georgia, 'Times New Roman', serif; fill: #1F1B16; letter-spacing: 0; }
      .h2 { font: 700 26px Inter, -apple-system, BlinkMacSystemFont, sans-serif; fill: #211D17; letter-spacing: 0; }
      .body { font: 500 20px Inter, -apple-system, BlinkMacSystemFont, sans-serif; fill: #70685D; letter-spacing: 0; }
      .small { font: 500 16px Inter, -apple-system, BlinkMacSystemFont, sans-serif; fill: #766E63; letter-spacing: 0; }
      .tiny { font: 600 13px Inter, -apple-system, BlinkMacSystemFont, sans-serif; fill: #81786B; letter-spacing: 0; }
      .micro { font: 700 11px Inter, -apple-system, BlinkMacSystemFont, sans-serif; fill: #8A8070; letter-spacing: .5px; }
      .screen { fill: #FFFDF8; stroke: #D9CAB2; stroke-width: 1.4; filter: url(#softShadow); }
      .card { fill: #FFFDF8; stroke: #E2D6C3; stroke-width: 1.2; }
      .goldStroke { stroke: url(#goldLine); stroke-width: 1.8; }
    </style>
  </defs>

  <rect width="2400" height="1700" fill="url(#pageBg)"/>
  <rect width="2400" height="1700" filter="url(#texture)" opacity="0.9"/>
  <path d="M0 0L420 0L215 205L0 126Z" fill="#F0DCAA" opacity="0.28"/>
  <path d="M2400 0L2095 0L2192 185L2400 302Z" fill="#BFD8CF" opacity="0.34"/>
  <path d="M0 1700L0 1420L260 1504L520 1700Z" fill="#C7B37B" opacity="0.18"/>
  <path d="M2400 1700L2070 1700L2250 1456L2400 1370Z" fill="#E3C575" opacity="0.18"/>

  <text x="120" y="110" class="label">Geuldarak visual proposal</text>
  <text x="120" y="176" class="title">Mineral Archive</text>
  <text x="120" y="225" class="body">책 표지를 보석처럼 세팅하고, 금속성 테두리와 미세한 광택으로 고급 독서 아카이브 분위기를 만드는 방향</text>

  <g transform="translate(1660 86)">
    <rect x="0" y="0" width="585" height="120" rx="28" fill="#191B18"/>
    <circle cx="56" cy="60" r="18" fill="url(#emerald)"/>
    <circle cx="112" cy="60" r="18" fill="url(#sapphire)"/>
    <circle cx="168" cy="60" r="18" fill="url(#ruby)"/>
    <rect x="220" y="35" width="300" height="12" rx="6" fill="#E8D4A6"/>
    <rect x="220" y="61" width="230" height="10" rx="5" fill="#7F7769"/>
    <text x="220" y="96" class="tiny" fill="#F3E8D3">ivory + onyx + gem accents</text>
  </g>

  <!-- Feed page -->
  <g transform="translate(120 300)">
    <text x="0" y="-38" class="label">01 피드</text>
    <rect class="screen" x="0" y="0" width="1040" height="620" rx="38"/>
    <rect x="0" y="0" width="1040" height="78" rx="38" fill="#FFFDF9"/>
    <rect x="0" y="59" width="1040" height="19" fill="#FFFDF9"/>
    <line x1="0" x2="1040" y1="78" y2="78" stroke="#E2D5C0"/>
    <text x="42" y="49" class="h2" fill="#A97722">글다락</text>
    <text x="760" y="48" class="small">피드</text>
    <text x="822" y="48" class="small">책 목록</text>
    <rect x="912" y="25" width="88" height="30" rx="15" fill="#1F211E"/>
    <text x="935" y="45" class="tiny" fill="#F6E9CE">쓰기</text>

    <path d="M37 112L972 112L1000 230L864 314L541 258L351 339L62 281Z" fill="#F3E8D3"/>
    <path d="M37 112L280 112L351 339L62 281Z" fill="#EAD2A0" opacity="0.65"/>
    <path d="M280 112L602 112L541 258L351 339Z" fill="#F7F0E5"/>
    <path d="M602 112L972 112L864 314L541 258Z" fill="#DDEBE5"/>
    <path d="M37 112L972 112L1000 230L864 314L541 258L351 339L62 281Z" stroke="#D4BF95" stroke-width="1.3" opacity="0.55"/>
    <text x="66" y="172" class="micro">CURATED READING FEED</text>
    <text x="66" y="228" class="h1">오늘 발견한 문장들</text>
    <text x="68" y="266" class="body">보석 컷처럼 정돈된 카드와 부드러운 종이 질감</text>
    <rect x="60" y="296" width="730" height="58" rx="29" fill="#FFFDF9" stroke="#D5C19A" filter="url(#smallShadow)"/>
    <circle cx="98" cy="325" r="11" stroke="#A97722" stroke-width="3"/>
    <line x1="107" y1="334" x2="118" y2="345" stroke="#A97722" stroke-width="3" stroke-linecap="round"/>
    <text x="137" y="333" class="body">책 제목, 저자, 독후감 제목으로 검색...</text>
    <rect x="812" y="296" width="94" height="36" rx="18" fill="url(#emerald)"/>
    <text x="837" y="319" class="tiny" fill="#FFFFFF">추천</text>
    <rect x="916" y="296" width="70" height="36" rx="18" fill="#FFF7E7" stroke="#D2B978"/>
    <text x="937" y="319" class="tiny" fill="#8A631E">최신</text>

    <g transform="translate(48 392)">
      <rect class="card" width="292" height="176" rx="22"/>
      <rect x="22" y="24" width="72" height="108" rx="8" fill="#221F19"/>
      <rect x="29" y="31" width="58" height="94" rx="5" fill="#D0A74B"/>
      <line x1="104" x2="104" y1="24" y2="132" class="goldStroke"/>
      <rect x="122" y="28" width="78" height="18" rx="9" fill="#E6F2EC"/>
      <text x="138" y="41" class="micro" fill="#0D5948">추천</text>
      <text x="122" y="74" class="h2">사라지는 문장</text>
      <text x="122" y="105" class="small">빛나는 문장 하나가...</text>
      <rect x="122" y="136" width="42" height="12" rx="6" fill="#E8DCC8"/>
      <rect x="174" y="136" width="58" height="12" rx="6" fill="#E8DCC8"/>
    </g>
    <g transform="translate(374 392)">
      <rect class="card" width="292" height="176" rx="22"/>
      <rect x="22" y="24" width="72" height="108" rx="8" fill="#173149"/>
      <rect x="29" y="31" width="58" height="94" rx="5" fill="#C8D7E7"/>
      <line x1="104" x2="104" y1="24" y2="132" class="goldStroke"/>
      <rect x="122" y="28" width="78" height="18" rx="9" fill="#E9EEF5"/>
      <text x="136" y="41" class="micro" fill="#315A84">읽는 중</text>
      <text x="122" y="74" class="h2">차가운 서재</text>
      <text x="122" y="105" class="small">표지가 먼저 말을...</text>
      <rect x="122" y="136" width="42" height="12" rx="6" fill="#E8DCC8"/>
      <rect x="174" y="136" width="58" height="12" rx="6" fill="#E8DCC8"/>
    </g>
    <g transform="translate(700 392)">
      <rect class="card" width="292" height="176" rx="22"/>
      <rect x="22" y="24" width="72" height="108" rx="8" fill="#43212A"/>
      <rect x="29" y="31" width="58" height="94" rx="5" fill="#E9A0A6"/>
      <line x1="104" x2="104" y1="24" y2="132" class="goldStroke"/>
      <rect x="122" y="28" width="78" height="18" rx="9" fill="#F8E7EA"/>
      <text x="136" y="41" class="micro" fill="#8B2636">비추천</text>
      <text x="122" y="74" class="h2">붉은 여백</text>
      <text x="122" y="105" class="small">아쉬운 장면들을...</text>
      <rect x="122" y="136" width="42" height="12" rx="6" fill="#E8DCC8"/>
      <rect x="174" y="136" width="58" height="12" rx="6" fill="#E8DCC8"/>
    </g>
  </g>

  <!-- Book detail page -->
  <g transform="translate(1240 300)">
    <text x="0" y="-38" class="label">02 책 상세</text>
    <rect class="screen" x="0" y="0" width="1040" height="620" rx="38"/>
    <rect x="38" y="38" width="964" height="330" rx="30" fill="#FFFDF8" stroke="#E0D1B9"/>
    <rect x="38" y="38" width="350" height="330" rx="30" fill="url(#onyx)"/>
    <path d="M38 38L388 38L324 210L388 368L38 368L116 226Z" fill="#315A84" opacity="0.15"/>
    <path d="M62 62L166 62L116 226L38 368L38 124Z" fill="#F0C36B" opacity="0.12"/>
    <rect x="148" y="86" width="130" height="198" rx="12" fill="#F8F1E4" filter="url(#smallShadow)"/>
    <rect x="160" y="98" width="106" height="174" rx="8" fill="#234536"/>
    <path d="M160 98H266L226 182L266 272H160L190 180Z" fill="#E6C56D" opacity="0.8"/>
    <text x="176" y="144" class="tiny" fill="#11241C">BOOK</text>
    <text x="176" y="173" class="tiny" fill="#11241C">TITLE</text>
    <line x1="388" x2="388" y1="64" y2="342" class="goldStroke"/>
    <text x="430" y="90" class="micro">BOOK PROFILE</text>
    <text x="430" y="146" class="h1">작은 책방의 밤</text>
    <text x="430" y="184" class="body">김서재 · 문학동네</text>
    <rect x="430" y="218" width="96" height="34" rx="17" fill="#F6E8C9" stroke="#D0B26A"/>
    <text x="456" y="241" class="tiny" fill="#8A631E">2026년</text>
    <rect x="540" y="218" width="126" height="34" rx="17" fill="#E7F1EE" stroke="#BBD8CF"/>
    <text x="568" y="241" class="tiny" fill="#0D5948">소설/시</text>
    <rect x="680" y="218" width="96" height="34" rx="17" fill="#EEF2F6" stroke="#C5D4E3"/>
    <text x="708" y="241" class="tiny" fill="#315A84">312쪽</text>
    <text x="430" y="296" class="body">책의 분위기와 리뷰 통계를 한 번에 읽도록, 표지는 검은 광물판 위에 세팅합니다.</text>
    <rect x="430" y="322" width="174" height="42" rx="21" fill="#1F211E"/>
    <text x="468" y="350" class="tiny" fill="#F7E5BD">독후감 쓰기</text>

    <g transform="translate(38 405)">
      <text x="0" y="0" class="h2">이 책의 독후감</text>
      <rect x="0" y="28" width="610" height="118" rx="22" fill="#FFFDF8" stroke="#E0D1B9"/>
      <circle cx="36" cy="64" r="14" fill="url(#emerald)"/>
      <text x="64" y="69" class="small">문장 속 빛이 오래 남는다</text>
      <text x="64" y="100" class="small">단정한 문장과 느린 전개가 잘 어울리는 책...</text>
      <rect x="500" y="46" width="80" height="26" rx="13" fill="#E7F1EE"/>
      <text x="522" y="64" class="micro" fill="#0D5948">추천</text>
    </g>
    <g transform="translate(704 405)">
      <rect x="0" y="0" width="298" height="146" rx="24" fill="#191B18"/>
      <text x="28" y="42" class="small" fill="#E8DCC8">리뷰 분석</text>
      <text x="28" y="99" class="h1" fill="#F0C36B">87%</text>
      <text x="144" y="93" class="small" fill="#F1E5CF">추천해요</text>
      <rect x="28" y="118" width="206" height="8" rx="4" fill="#463A29"/>
      <rect x="28" y="118" width="178" height="8" rx="4" fill="url(#goldLine)"/>
    </g>
  </g>

  <!-- Books page -->
  <g transform="translate(120 1010)">
    <text x="0" y="-38" class="label">03 책 목록</text>
    <rect class="screen" x="0" y="0" width="1040" height="540" rx="38"/>
    <text x="46" y="72" class="h1">책 목록</text>
    <text x="46" y="110" class="body">표지를 광물 샘플처럼 배열해 탐색성을 높입니다.</text>
    <rect x="46" y="144" width="520" height="50" rx="25" fill="#FFFDF8" stroke="#D2B978"/>
    <circle cx="78" cy="169" r="9" stroke="#A97722" stroke-width="3"/>
    <line x1="86" y1="177" x2="95" y2="186" stroke="#A97722" stroke-width="3" stroke-linecap="round"/>
    <text x="116" y="176" class="small">책 제목 또는 저자로 검색...</text>
    <rect x="600" y="150" width="84" height="38" rx="19" fill="#1F211E"/>
    <text x="626" y="174" class="tiny" fill="#F6E9CE">전체</text>
    <rect x="696" y="150" width="100" height="38" rx="19" fill="#F4E7D0"/>
    <text x="724" y="174" class="tiny" fill="#8A631E">추천 80%</text>
    <rect x="808" y="150" width="86" height="38" rx="19" fill="#E8F0EE"/>
    <text x="832" y="174" class="tiny" fill="#0D5948">소설</text>

    <g transform="translate(46 230)">
      <g>
        <rect width="138" height="236" rx="18" fill="#FFFDF8" stroke="#E0D1B9"/>
        <rect x="18" y="18" width="102" height="150" rx="9" fill="#173149"/>
        <path d="M18 18H120L90 95L120 168H18L42 90Z" fill="#C7DAE9"/>
        <rect x="18" y="18" width="102" height="150" rx="9" stroke="url(#goldLine)" stroke-width="2"/>
        <text x="18" y="199" class="tiny">차가운 서재</text>
        <text x="18" y="222" class="micro">리뷰 24</text>
      </g>
      <g transform="translate(166 0)">
        <rect width="138" height="236" rx="18" fill="#FFFDF8" stroke="#E0D1B9"/>
        <rect x="18" y="18" width="102" height="150" rx="9" fill="#234536"/>
        <path d="M18 18H120L78 82L120 168H18L58 110Z" fill="#D4B25C"/>
        <rect x="18" y="18" width="102" height="150" rx="9" stroke="url(#goldLine)" stroke-width="2"/>
        <text x="18" y="199" class="tiny">작은 책방</text>
        <text x="18" y="222" class="micro">리뷰 19</text>
      </g>
      <g transform="translate(332 0)">
        <rect width="138" height="236" rx="18" fill="#FFFDF8" stroke="#E0D1B9"/>
        <rect x="18" y="18" width="102" height="150" rx="9" fill="#5F2230"/>
        <path d="M18 18H120L98 82L120 168H18L44 110Z" fill="#E8A0A6"/>
        <rect x="18" y="18" width="102" height="150" rx="9" stroke="url(#goldLine)" stroke-width="2"/>
        <text x="18" y="199" class="tiny">붉은 여백</text>
        <text x="18" y="222" class="micro">리뷰 11</text>
      </g>
      <g transform="translate(498 0)">
        <rect width="138" height="236" rx="18" fill="#FFFDF8" stroke="#E0D1B9"/>
        <rect x="18" y="18" width="102" height="150" rx="9" fill="#271D16"/>
        <path d="M18 18H120L75 90L120 168H18L42 70Z" fill="#C89745"/>
        <rect x="18" y="18" width="102" height="150" rx="9" stroke="url(#goldLine)" stroke-width="2"/>
        <text x="18" y="199" class="tiny">검은 문장</text>
        <text x="18" y="222" class="micro">리뷰 8</text>
      </g>
      <g transform="translate(664 0)">
        <rect width="138" height="236" rx="18" fill="#FFFDF8" stroke="#E0D1B9"/>
        <rect x="18" y="18" width="102" height="150" rx="9" fill="#F1E7D3"/>
        <path d="M18 18H120L90 75L120 168H18L55 106Z" fill="#B7D8D0"/>
        <rect x="18" y="18" width="102" height="150" rx="9" stroke="url(#goldLine)" stroke-width="2"/>
        <text x="18" y="199" class="tiny">오팔의 방</text>
        <text x="18" y="222" class="micro">리뷰 7</text>
      </g>
      <g transform="translate(830 0)">
        <rect width="138" height="236" rx="18" fill="#FFFDF8" stroke="#E0D1B9"/>
        <rect x="18" y="18" width="102" height="150" rx="9" fill="#203227"/>
        <path d="M18 18H120L100 103L120 168H18L46 84Z" fill="#A7B56E"/>
        <rect x="18" y="18" width="102" height="150" rx="9" stroke="url(#goldLine)" stroke-width="2"/>
        <text x="18" y="199" class="tiny">초록 기록</text>
        <text x="18" y="222" class="micro">리뷰 6</text>
      </g>
    </g>
  </g>

  <!-- Dashboard / diary page -->
  <g transform="translate(1240 1010)">
    <text x="0" y="-38" class="label">04 대시보드 · 독서 일기</text>
    <rect class="screen" x="0" y="0" width="1040" height="540" rx="38"/>
    <text x="46" y="72" class="h1">독서 기록</text>
    <text x="46" y="110" class="body">통계 화면은 차분하게 두고, 기록된 날짜와 핵심 수치에만 광택을 줍니다.</text>
    <rect x="46" y="150" width="948" height="58" rx="29" fill="#F5EDDE" stroke="#DDCFBA"/>
    <rect x="60" y="160" width="152" height="38" rx="19" fill="#1F211E"/>
    <text x="96" y="184" class="tiny" fill="#F6E9CE">독서 통계</text>
    <text x="250" y="184" class="tiny">내 독후감</text>
    <text x="390" y="184" class="tiny">북마크</text>
    <text x="498" y="184" class="tiny">계정</text>

    <g transform="translate(46 242)">
      <rect x="0" y="0" width="294" height="212" rx="24" fill="#191B18"/>
      <text x="28" y="44" class="small" fill="#E8DCC8">이번 달 독서</text>
      <text x="28" y="120" class="h1" fill="#F0C36B">12</text>
      <text x="92" y="115" class="small" fill="#F1E5CF">권 기록</text>
      <path d="M28 160L74 134L126 148L172 104L234 128" stroke="url(#goldLine)" stroke-width="5" stroke-linecap="round" stroke-linejoin="round"/>
      <circle cx="172" cy="104" r="9" fill="url(#emerald)"/>
    </g>
    <g transform="translate(372 242)">
      <rect x="0" y="0" width="286" height="212" rx="24" fill="#FFFDF8" stroke="#E0D1B9"/>
      <text x="24" y="42" class="h2">장르 분포</text>
      <circle cx="142" cy="118" r="68" fill="none" stroke="#E9DDC8" stroke-width="18"/>
      <path d="M142 50A68 68 0 0 1 204 146" stroke="url(#emerald)" stroke-width="18" stroke-linecap="round"/>
      <path d="M204 146A68 68 0 0 1 103 174" stroke="url(#sapphire)" stroke-width="18" stroke-linecap="round"/>
      <path d="M103 174A68 68 0 0 1 142 50" stroke="url(#ruby)" stroke-width="18" stroke-linecap="round"/>
    </g>
    <g transform="translate(690 242)">
      <rect x="0" y="0" width="304" height="212" rx="24" fill="#FFFDF8" stroke="#E0D1B9"/>
      <text x="24" y="42" class="h2">5월 캘린더</text>
      <g transform="translate(26 70)">
        <rect width="252" height="112" rx="18" fill="#FBF6EC"/>
        <g fill="#DED2BF">
          <circle cx="24" cy="24" r="13"/><circle cx="58" cy="24" r="13"/><circle cx="92" cy="24" r="13"/><circle cx="126" cy="24" r="13"/><circle cx="160" cy="24" r="13"/><circle cx="194" cy="24" r="13"/><circle cx="228" cy="24" r="13"/>
          <circle cx="24" cy="58" r="13"/><circle cx="58" cy="58" r="13"/><circle cx="92" cy="58" r="13"/><circle cx="126" cy="58" r="13"/><circle cx="160" cy="58" r="13"/><circle cx="194" cy="58" r="13"/><circle cx="228" cy="58" r="13"/>
          <circle cx="24" cy="92" r="13"/><circle cx="58" cy="92" r="13"/><circle cx="92" cy="92" r="13"/><circle cx="126" cy="92" r="13"/><circle cx="160" cy="92" r="13"/><circle cx="194" cy="92" r="13"/><circle cx="228" cy="92" r="13"/>
        </g>
        <circle cx="92" cy="58" r="13" fill="url(#emerald)"/>
        <circle cx="160" cy="24" r="13" fill="url(#goldLine)"/>
        <circle cx="194" cy="92" r="13" fill="url(#sapphire)"/>
      </g>
    </g>
  </g>
</svg>
